<svg xmlns="http://www.w3.org/2000/svg" xmlns:xlink="http://www.w3.org/1999/xlink" viewBox="5691.577 1020.129 747.671 704.999">
  <defs>
    <style>
      .cls-1 {
        fill: #1592aa;
      }

      .cls-2 {
        filter: url(#Exclusion_9);
      }
    </style>
    <filter id="Exclusion_9" x="5691.577" y="1020.129" width="747.671" height="704.999" filterUnits="userSpaceOnUse">
      <feOffset dy="3" input="SourceAlpha"/>
      <feGaussianBlur stdDeviation="7.5" result="blur"/>
      <feFlood flood-opacity="0.161"/>
      <feComposite operator="in" in2="blur"/>
      <feComposite in="SourceGraphic"/>
    </filter>
  </defs>
  <g class="cls-2" transform="matrix(1, 0, 0, 1, 0, 0)">
    <path id="Exclusion_9-2" data-name="Exclusion 9" class="cls-1" d="M-4491.422-314.4a332.38,332.38,0,0,1-66.506-6.7,328.289,328.289,0,0,1-61.945-19.23,330.045,330.045,0,0,1-56.054-30.425,332.433,332.433,0,0,1-48.84-40.3,332.257,332.257,0,0,1-40.294-48.838,330.152,330.152,0,0,1-30.427-56.056,328.3,328.3,0,0,1-19.228-61.944,332.478,332.478,0,0,1-6.705-66.506,332.5,332.5,0,0,1,6.705-66.506,328.284,328.284,0,0,1,19.228-61.943,330.026,330.026,0,0,1,30.427-56.055,332.425,332.425,0,0,1,40.294-48.84,332.4,332.4,0,0,1,48.84-40.3,330.031,330.031,0,0,1,56.054-30.426,328.366,328.366,0,0,1,61.945-19.228,332.463,332.463,0,0,1,66.506-6.7,332.458,332.458,0,0,1,66.507,6.7,328.4,328.4,0,0,1,61.945,19.228,330.023,330.023,0,0,1,56.055,30.426,332.445,332.445,0,0,1,48.839,40.3,332.362,332.362,0,0,1,40.294,48.84,329.852,329.852,0,0,1,30.427,56.055,329.024,329.024,0,0,1,16.571,50.092,38.2,38.2,0,0,0-8.877-1.042h-13.862a38.206,38.206,0,0,0-8.3.909c-35.409-130.394-154.484-221.462-289.57-221.462-165.42,0-300,134.58-300,300s134.579,300,300,300a298.556,298.556,0,0,0,161.864-47.511,301.441,301.441,0,0,0,108.8-123.157,37.7,37.7,0,0,0,27.205,11.47h.616a330.984,330.984,0,0,1-24.875,43.657,332.278,332.278,0,0,1-40.294,48.838,332.306,332.306,0,0,1-48.839,40.3,330.084,330.084,0,0,1-56.055,30.425,328.233,328.233,0,0,1-61.945,19.23A332.379,332.379,0,0,1-4491.422-314.4ZM-4522.5-457.551h-.031c-4.294-.019-14.807-4.241-31.247-12.549-13.5-6.823-31.274-16.567-51.4-28.18-36.944-21.318-71.616-42.987-76.961-47.192-1.671-1.315-3.2-3.947-4.557-7.823a77.2,77.2,0,0,1-3.134-13.52,150.3,150.3,0,0,1-1.524-16.582,152.912,152.912,0,0,1,.273-17.008,79.246,79.246,0,0,1,2.916-17.1c1.563-4.979,3.59-8.2,6.026-9.586a5.18,5.18,0,0,1,2.53-.52c5.056,0,15.327,3.845,31.4,11.756,14.314,7.044,31.162,16.254,48.61,25.863l4.413,2.431.569.314c32.542,17.935,63.278,34.875,72.058,34.875h.026c8.628-.034,38.816-16.793,70.776-34.537,17.815-9.891,36.235-20.117,51.652-27.844,8.325-4.172,15.02-7.242,20.466-9.385,6.142-2.416,10.526-3.59,13.405-3.59a5.066,5.066,0,0,1,2.776.637c2.02,1.332,3.742,3.981,5.118,7.873a62.878,62.878,0,0,1,2.832,13.53,139.7,139.7,0,0,1,.77,17.661,166.341,166.341,0,0,1-1.257,18c-1.558,12.262-4.278,21.214-7.463,24.56-2.4,2.523-11.788,8.974-26.429,18.165-14.519,9.114-32.207,19.673-49.808,29.731-19.723,11.271-37.515,20.871-51.451,27.763C-4507.6-461.677-4518.15-457.551-4522.5-457.551Zm308.2-77.825h-30.53l29.042-140.158h31.521l-11.8,55.012c-.2.943-.418,2.01-.644,3.171-.234,1.2-.451,2.385-.645,3.519-.2,1.2-.367,2.239-.5,3.173a17.734,17.734,0,0,0-.2,2.23,32.2,32.2,0,0,0,.347,4.907,10.184,10.184,0,0,0,1.289,3.767,6.243,6.243,0,0,0,2.725,2.379,11.037,11.037,0,0,0,4.66.842,18.279,18.279,0,0,0,9.317-2.677,34.029,34.029,0,0,0,8.425-7.137,48.625,48.625,0,0,0,6.79-10.407,53.432,53.432,0,0,0,4.311-12.49l9.813-46.289h31.62l-12.49,58.184c-.459,2.1-.843,4.417-1.14,6.89a51.964,51.964,0,0,0-.446,5.7,6.642,6.642,0,0,0,2.131,5.3,8.026,8.026,0,0,0,5.4,1.834,20.849,20.849,0,0,0,3.122-.248,25.359,25.359,0,0,0,3.322-.743l-5.155,23.789c-1.3.324-2.58.641-3.816.941a38.793,38.793,0,0,1-4.113.743c-1.517.2-3.334.365-5.4.5s-4.661.2-7.681.2a33.206,33.206,0,0,1-9.962-1.338,18.54,18.54,0,0,1-6.938-3.816,15.644,15.644,0,0,1-4.064-5.848,20.075,20.075,0,0,1-1.338-7.434,5.594,5.594,0,0,1,.051-.693,6.446,6.446,0,0,0,.048-.794v-.793h-.4a81.268,81.268,0,0,1-6.542,8.475,45.948,45.948,0,0,1-7.534,6.839,35.473,35.473,0,0,1-8.771,4.609,30.672,30.672,0,0,1-10.359,1.686c-.987,0-2.121-.05-3.37-.149a15.919,15.919,0,0,1-2.181-.248c-.782,3.655-1.626,7.546-2.577,11.895-.869,3.972-1.712,7.862-2.578,11.894-.889,4.131-1.8,8.314-2.774,12.787Zm-75.5-1.98a70.3,70.3,0,0,1-14.67-1.466c-4.769-1.038-8.6-2.586-11.072-4.478-2.146-1.641-3.259-7.311-3.5-17.844-.218-9.411.285-21.607.816-34.518v-.021c.688-16.689,1.4-33.946.763-48.478-.726-16.579-3.144-26.5-7.392-30.321a7.64,7.64,0,0,0-5.216-1.535c-3.691,0-8.786,1.236-15.577,3.778a239.95,239.95,0,0,0-22.261,9.98c-16.584,8.268-36.571,19.535-55.9,30.432l-.008,0-1.511.852c-18.558,10.462-39.591,22.319-57.083,30.97a242.438,242.438,0,0,1-23.03,10.206c-7.074,2.605-12.424,3.872-16.356,3.872-.111,0-.221,0-.331,0-4.194-.08-10.717-1.648-19.388-4.659-8.26-2.869-18.229-6.96-29.63-12.161-22.674-10.344-49.027-24.168-74.2-38.926-27.367-16.04-50.821-31.676-67.825-45.218-9.371-7.462-16.656-14.2-21.655-20.027-5.395-6.288-8.161-11.56-8.222-15.67s2.739-9.246,8.321-15.3c5.139-5.57,12.7-11.976,22.465-19.04,17.226-12.458,41.466-27.058,70.1-42.22,12.665-6.707,25.788-13.313,39-19.636,12.587-6.022,24.661-11.5,35.885-16.289,22.658-9.662,39.115-15.292,45.152-15.447.074,0,.152,0,.229,0,13.208,0,75.261,26.861,128.931,52,28.753,13.468,56.68,27.149,78.636,38.525,11.211,5.809,20.339,10.746,27.131,14.672,7.2,4.162,11.576,7.079,13.013,8.671a58.649,58.649,0,0,1,10.122,14.753,25.13,25.13,0,0,1,2.168,7.049,3.328,3.328,0,0,0,.058.339c2.708,16.929,3.128,59.755,2.342,94.688-.44,19.569-1.272,37.683-2.342,51.007-1.2,14.892-2.668,23.713-4.258,25.512-1.636,1.851-4.842,3.385-9.271,4.437A63.917,63.917,0,0,1-4289.8-537.356Z" transform="translate(10535.5 2014.03)"/>
  </g>
</svg>
